<?xml version="1.0" standalone="no"?><!DOCTYPE svg PUBLIC "-//W3C//DTD SVG 1.1//EN" "http://www.w3.org/Graphics/SVG/1.1/DTD/svg11.dtd"><svg t="1585823797511" class="icon" viewBox="0 0 1024 1024" version="1.1" xmlns="http://www.w3.org/2000/svg" p-id="805" xmlns:xlink="http://www.w3.org/1999/xlink" width="200" height="200"><defs><style type="text/css"></style></defs><path d="M509.4 498h-384c-22 0-40-18-40-40V129.6c0-22 18-40 40-40h344c22 0 40 18 40 40V498zM160.2 443.2h294.2V164.4c0-11-9-20-20-20H160.2c-11 0-20 9-20 20v258.8c0 11 9 20 20 20zM509.4 894.4c0 22-18 40-40 40h-344c-22 0-40-18-40-40V566c0-22 18-40 40-40h384v368.4zM140.2 600.8v258.8c0 11 9 20 20 20h274.2c11 0 20-9 20-20V580.8H160.2c-11 0-20 9-20 20zM539.4 129.6c0-22 18-40 40-40h344c22 0 40 18 40 40V458c0 22-18 40-40 40h-384V129.6z m369.2 293.6V164.4c0-11-9-20-20-20H614.4c-11 0-20 9-20 20v278.8h294.2c11 0 20-9 20-20zM539.4 526h384c22 0 40 18 40 40v328.6c0 22-18 40-40 40h-344c-22 0-40-18-40-40V526z m349.2 54.8H594.4v278.8c0 11 9 20 20 20h274.2c11 0 20-9 20-20V600.8c0-11-9-20-20-20z" fill="#2c2c2c" p-id="806"></path></svg>